<svg id="Layer_1" data-name="Layer 1" xmlns="http://www.w3.org/2000/svg" viewBox="0 0 1054.05 960.05"><defs><style>.cls-1{fill:#fff;}</style></defs><title>Logo Mark White</title><path class="cls-1" d="M518.37,423.77c.06-.16.1-.33.15-.49l-.57.53Z"/><path class="cls-1" d="M410.91,479a215.34,215.34,0,0,0,98.55-47.68q4.29-3.64,8.36-7.51l.13,0,.57-.53s0-.1,0-.15A215.7,215.7,0,0,0,585.4,266.78q0-4.45-.18-8.88h.13A349.72,349.72,0,0,0,325.12,373.78q-5.73,6.33-11.13,13a350.34,350.34,0,0,0-45.3,71.55,214.79,214.79,0,0,0,86.65,24.31q6.92.45,13.92.45,10.59,0,20.91-1c2.3-.22,4.58-.48,6.86-.78Q404,480.37,410.91,479Z"/><path class="cls-1" d="M756.67,276.89a70.86,70.86,0,0,1,20-9.81c23.48-7.25,48.19-2.05,73.34-1.65-14.53-30.36-39.85-36.11-66.24-38.71-12.82-1.28-24.14-4.1-35.56-10.66-29.26-16.81-58.52-14.88-87,3.4-2.51,1.6-4.91,3.2-7.22,4.77l0,0a81.68,81.68,0,0,0-16.43,12.34c-9,7.58-15.84,15-20.77,22.68q-15.5-1.36-31.36-1.38h-.18q.18,4.43.18,8.88a215.7,215.7,0,0,1-66.84,156.35c0,.05,0,.1,0,.15s-.09.33-.15.49l-.42,0-.13,0q-4.08,3.85-8.36,7.51A215.34,215.34,0,0,1,410.91,479Q404,480.37,397,481.27c-2.28.3-4.56.56-6.86.78q-10.38,1-21,1-7,0-13.92-.44a351.8,351.8,0,0,0-77,71.18c-2.94,3.67-5.68,7.49-8.37,11.35-34.3,49.2-58.33,103.45-65.58,163.38a15.87,15.87,0,0,0,.13,6.48c.74,2.44,2.57,4.37,4.35,6.2l9.75,10.07c1.69,1.74,3.53,3.58,5.9,4.09a12.14,12.14,0,0,0,4.9-.28,243,243,0,0,0,47.53-14.67,22.85,22.85,0,0,0,6.31-3.53c2.53-2.2,4-5.32,5.5-8.33a328.12,328.12,0,0,1,82.68-105.78q9.73-8.21,20-15.67,9.08-1.14,18-2.78c1.76,11.74,6.42,21.38,19.28,27.7,20.63,10.13,36.72,47.57,55.18,72.1,13.08,17.37-9.55,17.48-3.86,31.78,29.49,0,59.59-6.48,95.07,4.35a91.65,91.65,0,0,0-6.55-10.9c26-1.1,53-4.87,84.07,4.61-16.19-31.38-33.39-29.69-49.71-32.16-38.42-5.82-57.46-62.44-83.51-99.73-6.09-8.73-1-26.31,3.34-40.45A340.23,340.23,0,0,0,670.1,378.48c.48-.62.95-1.23,1.44-1.84,6.11-23.68,41.32-49.22,54.57-58.13a25,25,0,0,0,6.35-6.53c3.63-5.14,12.49-1.27,18.19-.38,6,.93,12.05,2.34,18.22,3.62h0q2.58.31,5.1.81c1.42.27,2.82.58,4.21.93,12.14,1.95,25.12,2.39,40.18-2.73C792.7,304.78,772.18,296.17,756.67,276.89Zm-195.26,421c8.68,11.52,1.64,15.45-2.42,21-11.22-9.26-22.61-9-33.6-10.72-38.42-5.82-57.46-62.43-83.51-99.73-2-2.82-2.76-6.57-2.79-10.82q15.56-4.32,30.64-10.09,7.69-3,15.21-6.27l.9-.4c.32,19.51,1.65,35.76,20.39,45C526.85,635.88,542.94,673.32,561.41,697.85Z"/></svg>