<svg id="Layer_1" data-name="Layer 1" xmlns="http://www.w3.org/2000/svg" viewBox="0 0 1054.05 960.05"><defs><style>.cls-1{fill:#fff;}</style></defs><title>Logo Mark White</title><path class="cls-1" d="M524.07,244.53c30.06,0,60.21,5.73,83.53,24,2.9,2.26,5.86,4.8,9.49,5.34a10,10,0,0,0,1.55.12,23.4,23.4,0,0,0,7.47-1.69l.32-.11c38.28-13.26,79.06-17.89,119.55-18.71,2.63-.05,5.27-.09,7.92-.09,17.22,0,34.64,1.48,50,8.9,17.78,8.56,32.17,27.06,30,46.67-12.42-7.78-27-11.11-41.76-11.11a106.83,106.83,0,0,0-23.93,2.79c-22.07,5.08-42.3,16-61.88,27.45C688.79,338.36,669,353.75,671.64,374c2.76,21.46,27.84,30.69,48.07,38.34a246.38,246.38,0,0,1,83.43,52.73L713,452.13a154.13,154.13,0,0,0-21.62-2,57.26,57.26,0,0,0-13.55,1.49c-29.5,7.16-44.33,39.88-51.67,69.34a419,419,0,0,0-3.66,185.81,440.28,440.28,0,0,1-99.27-58q.33,10.07.67,20.12A307,307,0,0,1,426,577.14q-2.94,11-5.87,22.09a86.49,86.49,0,0,1-31.66-69.05,103.55,103.55,0,0,0-14.37,51,94.53,94.53,0,0,1-26.28-67.49,181,181,0,0,0-20.67,67.5,269.85,269.85,0,0,1-23.47-101,81.6,81.6,0,0,0-25.48,47.58,193,193,0,0,1,27.38-128,193.83,193.83,0,0,0-38.9,28c7.2-12,13.77-24.82,22.13-36q11.88-15.9,24.83-31,13.22-15.36,27.51-29.77c4.76-4.79,20.23-20.37,28.28-26.62l-27.2,8c40.22-42.09,99.34-61.48,157.32-66.65,8.07-.71,16.28-1.14,24.51-1.14m0-13.39h0c-8.11,0-16.75.41-25.7,1.2-32.35,2.89-62.32,9.74-89.07,20.38-30.62,12.16-56.43,29.11-76.74,50.35L298,339.28l23.09-6.79c-6,6.38-11.88,12.9-17.55,19.5-8.82,10.25-17.37,20.91-25.41,31.69-6.41,8.59-11.7,17.81-16.82,26.74-2.08,3.61-4,7-6.06,10.39L206.47,501.9l65.74-61.06q-2.67,8.69-4.59,17.67A204.16,204.16,0,0,0,265,529.57l12.68,90.67,13.81-90.51a65.42,65.42,0,0,1,2.78-11.3A284.16,284.16,0,0,0,315,586.66l20.51,45.66,5-49.81a165.71,165.71,0,0,1,3.71-21.91,107.32,107.32,0,0,0,20.31,29.89L387,613.73l.48-32.36c0-.26,0-.52,0-.77a98.19,98.19,0,0,0,24.24,29l16,12.93,4.06-15.28a321.41,321.41,0,0,0,85.21,73.12l21,12.35-.57-17.07a453.4,453.4,0,0,0,79.82,43.37l23.45,9.84L635.57,704a406.34,406.34,0,0,1,3.53-179.84c6-24,18.09-53.81,41.85-59.58a43.79,43.79,0,0,1,10.39-1.11c6.41,0,13.48,1,19.72,1.91l90.18,12.94,41.13,5.9-30-28.8a261.46,261.46,0,0,0-88-55.6l-.73-.27c-17.39-6.57-37.1-14-38.81-27.26-1.29-10,8.22-21,28.25-32.65,18.06-10.52,37.42-21.2,58.15-26a93.52,93.52,0,0,1,20.92-2.44c13.21,0,25.19,3.13,34.65,9.06L845,331.66l2.3-21.27c1.34-12.46-2-25.07-9.82-36.46a71.51,71.51,0,0,0-27.73-23.71C791,241.16,770,240,753.9,240c-2.49,0-5.17,0-8.19.09-48.27,1-88.71,7.34-123.65,19.44l-.19.06-.15.06c-.68.23-1.81.62-2.58.82-.72-.47-1.8-1.32-2.57-1.92l-.72-.57c-12.37-9.68-27.2-16.83-44.1-21.25-14.17-3.71-30.21-5.59-47.68-5.59Z"/><path class="cls-1" d="M596.36,325.54a86.15,86.15,0,0,0-11.93-12.9,94.75,94.75,0,0,0-14.34-10.31,101.69,101.69,0,0,0-33-12.32,133.55,133.55,0,0,0-34.86-2.08c-1.45.14-2.9.2-4.33.39l-4.32.54c-2.86.48-5.71.91-8.53,1.55a117.82,117.82,0,0,0-16.58,4.89l-5.09,1.94,1.61,4.67h0l1.92,5.56.19-.07a76.67,76.67,0,0,0,14.42,22.5,65.69,65.69,0,0,0,12.3,10.42,70.68,70.68,0,0,0,13.76,7.05l.05.07.43.15.22.08.87.31.06,0a85.63,85.63,0,0,0,9.13,2.68,89,89,0,0,0,10.19,1.77,92.63,92.63,0,0,0,10.26.63c1.71,0,3.42,0,5.13-.1.85,0,1.71-.09,2.56-.14l2.57-.24,3.06-.39,1.55-.19,1.53-.24c2-.32,4.08-.72,6.12-1.16,1-.22,2-.49,3-.76l3.06-.8c2-.57,4-1.22,6.06-1.93s4-1.51,6-2.37,3.94-1.83,5.86-2.88a68.3,68.3,0,0,0,11-7.39l4.13-3.4ZM570.91,342a55.27,55.27,0,0,1-5.06,3.11c-1.78.87-3.54,1.85-5.41,2.57a47.12,47.12,0,0,1-5.69,2c-.48.13-1,.28-1.45.39l-1.47.32-3,.6-2.5.34c-.83.09-1.66.19-2.5.26-1.67.1-3.35.17-5,.15a57.93,57.93,0,0,1-19.64-3.72c-1.56-.59-3.09-1.23-4.59-1.94s-2.95-1.52-4.41-2.28h0l-.28-.16a74.61,74.61,0,0,1-12-8.59,80,80,0,0,1-10-10.55A66.76,66.76,0,0,1,477,304.21a109,109,0,0,1,25.8-3.3,96.78,96.78,0,0,1,30.56,4.38,148.4,148.4,0,0,1,28.08,12.09c1.09.65,2.21,1.25,3.32,1.88s2.2,1.3,3.29,2c2.16,1.34,4.3,2.74,6.43,4.17,2.76,1.85,5.48,3.78,8.19,5.77-.93,1.09-1.88,2.17-2.9,3.2A61.49,61.49,0,0,1,570.91,342Z"/><path class="cls-1" d="M664.45,457.06h0"/></svg>